<svg xmlns="http://www.w3.org/2000/svg" version="1.1" xmlns:xlink="http://www.w3.org/1999/xlink" xmlns:svgjs="http://svgjs.com/svgjs" width="512" height="512" x="0" y="0" viewBox="0 0 512 512" style="enable-background:new 0 0 512 512" xml:space="preserve" class=""><g transform="matrix(1.1299999999999997,0,0,1.1299999999999997,-33.279999999999916,-63.27993515968288)"><path fill="#292929" d="M384.001 500.488H122.352c-15.132 0-27.399-12.267-27.399-27.399V91.433c0-15.132 12.267-27.399 27.399-27.399h261.649c15.132 0 27.399 12.267 27.399 27.399v381.656c0 15.132-12.267 27.399-27.399 27.399z" data-original="#cab4ef" class=""></path><path fill="#26a741" d="M352.962 193.779h-199.57c-8.223 0-14.889-6.666-14.889-14.889v-54.589c0-8.223 6.666-14.889 14.889-14.889h199.57c8.223 0 14.889 6.666 14.889 14.889v54.589c0 8.223-6.666 14.889-14.889 14.889z" data-original="#bdf4e3" class=""></path><g fill="#a183e2"><path d="M190.195 287.83h-42.772a8.92 8.92 0 0 1-8.921-8.921v-42.772a8.92 8.92 0 0 1 8.921-8.921h42.772a8.92 8.92 0 0 1 8.921 8.921v42.772a8.92 8.92 0 0 1-8.921 8.921zM190.195 374.054h-42.772a8.92 8.92 0 0 1-8.921-8.921v-42.772a8.92 8.92 0 0 1 8.921-8.921h42.772a8.92 8.92 0 0 1 8.921 8.921v42.772a8.92 8.92 0 0 1-8.921 8.921zM190.195 460.278h-42.772a8.92 8.92 0 0 1-8.921-8.921v-42.772a8.92 8.92 0 0 1 8.921-8.921h42.772a8.92 8.92 0 0 1 8.921 8.921v42.772a8.92 8.92 0 0 1-8.921 8.921zM274.563 287.83h-42.772a8.92 8.92 0 0 1-8.921-8.921v-42.772a8.92 8.92 0 0 1 8.921-8.921h42.772a8.92 8.92 0 0 1 8.921 8.921v42.772a8.922 8.922 0 0 1-8.921 8.921zM274.563 374.054h-42.772a8.92 8.92 0 0 1-8.921-8.921v-42.772a8.92 8.92 0 0 1 8.921-8.921h42.772a8.92 8.92 0 0 1 8.921 8.921v42.772a8.922 8.922 0 0 1-8.921 8.921zM274.563 460.278h-42.772a8.92 8.92 0 0 1-8.921-8.921v-42.772a8.92 8.92 0 0 1 8.921-8.921h42.772a8.92 8.92 0 0 1 8.921 8.921v42.772a8.922 8.922 0 0 1-8.921 8.921zM358.93 287.83h-42.772a8.92 8.92 0 0 1-8.921-8.921v-42.772a8.92 8.92 0 0 1 8.921-8.921h42.772a8.92 8.92 0 0 1 8.921 8.921v42.772a8.92 8.92 0 0 1-8.921 8.921z" fill="#2da74d" data-original="#a183e2" class=""></path></g><path fill="#2d2d2d" d="M358.93 313.44h-42.772a8.92 8.92 0 0 0-8.921 8.92v128.996a8.92 8.92 0 0 0 8.921 8.92h42.772a8.92 8.92 0 0 0 8.921-8.92V322.36a8.92 8.92 0 0 0-8.921-8.92z" data-original="#ef8bbd" class=""></path><path fill="#1b1b1b" d="M384.001 64.034h-56.496c12.44 0 22.525 10.084 22.525 22.525v320.888c0 12.44-10.085 22.524-22.525 22.524H117.477c-12.44 0-22.525-10.084-22.525-22.524v65.643c0 15.132 12.267 27.399 27.399 27.399H384c15.132 0 27.399-12.267 27.399-27.399V91.433c.002-15.132-12.265-27.399-27.398-27.399z" data-original="#be87ef" class=""></path><path fill="#238b43" d="M147.423 460.278h42.772a8.92 8.92 0 0 0 8.92-8.92v-21.387h-60.613v21.387a8.921 8.921 0 0 0 8.921 8.92zM231.791 460.278h42.772a8.92 8.92 0 0 0 8.921-8.92v-21.387H222.87v21.387a8.92 8.92 0 0 0 8.921 8.92z" data-original="#9762e2" class=""></path><path fill="#1b1b1b" d="M358.93 313.44h-8.9v94.006c0 12.44-10.084 22.524-22.524 22.524h-20.268v21.387a8.92 8.92 0 0 0 8.921 8.92h42.772a8.92 8.92 0 0 0 8.921-8.92V322.361a8.922 8.922 0 0 0-8.922-8.921z" data-original="#e068bd" class=""></path><path fill="#238b43" d="M358.93 227.216h-8.9v60.613h8.9a8.92 8.92 0 0 0 8.921-8.921v-42.772a8.92 8.92 0 0 0-8.921-8.92z" data-original="#9762e2" class=""></path><path fill="#238b43" d="M352.962 109.411h-2.932v84.368h2.932c8.223 0 14.889-6.667 14.889-14.889v-54.589c0-8.223-6.666-14.89-14.889-14.89z" data-original="#b1b7e3" class=""></path><g fill="#440a29"><path d="M384.001 53.98H122.352c-20.652 0-37.453 16.801-37.453 37.452v381.656c0 20.652 16.801 37.453 37.453 37.453h261.649c20.652 0 37.453-16.801 37.453-37.453V91.433c0-20.652-16.801-37.453-37.453-37.453zm17.346 419.109c0 9.564-7.781 17.346-17.346 17.346H122.352c-9.564 0-17.346-7.782-17.346-17.346V91.433c0-9.564 7.782-17.346 17.346-17.346h261.649c9.564 0 17.346 7.782 17.346 17.346z" fill="#3d3d3d" data-original="#440a29" class=""></path><path d="M352.962 103.38h-199.57c-11.536 0-20.921 9.385-20.921 20.921v54.589c0 11.536 9.386 20.921 20.921 20.921h199.57c11.536 0 20.921-9.385 20.921-20.921V124.3c0-11.535-9.386-20.92-20.921-20.92zm8.857 75.51c0 4.884-3.973 8.857-8.858 8.857h-199.57c-4.884 0-8.857-3.973-8.857-8.857V124.3c0-4.884 3.973-8.857 8.857-8.857h199.57c4.884 0 8.858 3.973 8.858 8.857zM190.195 221.184h-42.772c-8.245 0-14.953 6.708-14.953 14.953v42.772c0 8.245 6.708 14.952 14.953 14.952h42.772c8.245 0 14.952-6.707 14.952-14.952v-42.772c.001-8.245-6.707-14.953-14.952-14.953zm2.889 57.725a2.892 2.892 0 0 1-2.888 2.888h-42.772a2.892 2.892 0 0 1-2.889-2.888v-42.772a2.892 2.892 0 0 1 2.889-2.889h42.772a2.892 2.892 0 0 1 2.888 2.889zM190.195 307.409h-42.772c-8.245 0-14.953 6.707-14.953 14.952v42.772c0 8.245 6.708 14.953 14.953 14.953h42.772c8.245 0 14.952-6.708 14.952-14.953v-42.772c.001-8.245-6.707-14.952-14.952-14.952zm2.889 57.724a2.892 2.892 0 0 1-2.888 2.889h-42.772a2.892 2.892 0 0 1-2.889-2.889v-42.772a2.892 2.892 0 0 1 2.889-2.888h42.772a2.892 2.892 0 0 1 2.888 2.888zM190.195 393.632h-42.772c-8.245 0-14.953 6.708-14.953 14.953v42.772c0 8.245 6.708 14.952 14.953 14.952h42.772c8.245 0 14.952-6.707 14.952-14.952v-42.772c.001-8.245-6.707-14.953-14.952-14.953zm2.889 57.725a2.892 2.892 0 0 1-2.888 2.888h-42.772a2.892 2.892 0 0 1-2.889-2.888v-42.772a2.892 2.892 0 0 1 2.889-2.889h42.772a2.892 2.892 0 0 1 2.888 2.889zM274.563 221.184h-42.772c-8.245 0-14.953 6.708-14.953 14.953v42.772c0 8.245 6.708 14.952 14.953 14.952h42.772c8.245 0 14.952-6.707 14.952-14.952v-42.772c0-8.245-6.708-14.953-14.952-14.953zm2.888 57.725a2.892 2.892 0 0 1-2.888 2.888h-42.772a2.892 2.892 0 0 1-2.889-2.888v-42.772a2.892 2.892 0 0 1 2.889-2.889h42.772a2.892 2.892 0 0 1 2.888 2.889zM274.563 307.409h-42.772c-8.245 0-14.953 6.707-14.953 14.952v42.772c0 8.245 6.708 14.953 14.953 14.953h42.772c8.245 0 14.952-6.708 14.952-14.953v-42.772c0-8.245-6.708-14.952-14.952-14.952zm2.888 57.724a2.892 2.892 0 0 1-2.888 2.889h-42.772a2.892 2.892 0 0 1-2.889-2.889v-42.772a2.892 2.892 0 0 1 2.889-2.888h42.772a2.892 2.892 0 0 1 2.888 2.888zM274.563 393.632h-42.772c-8.245 0-14.953 6.708-14.953 14.953v42.772c0 8.245 6.708 14.952 14.953 14.952h42.772c8.245 0 14.952-6.707 14.952-14.952v-42.772c0-8.245-6.708-14.953-14.952-14.953zm2.888 57.725a2.892 2.892 0 0 1-2.888 2.888h-42.772a2.892 2.892 0 0 1-2.889-2.888v-42.772a2.892 2.892 0 0 1 2.889-2.889h42.772a2.892 2.892 0 0 1 2.888 2.889zM358.93 221.184h-42.772c-8.245 0-14.952 6.708-14.952 14.953v42.772c0 8.245 6.707 14.952 14.952 14.952h42.772c8.245 0 14.953-6.707 14.953-14.952v-42.772c0-8.245-6.708-14.953-14.953-14.953zm2.889 57.725a2.892 2.892 0 0 1-2.889 2.888h-42.772a2.892 2.892 0 0 1-2.888-2.888v-42.772a2.892 2.892 0 0 1 2.888-2.889h42.772a2.892 2.892 0 0 1 2.889 2.889zM358.93 307.409h-42.772c-8.245 0-14.952 6.707-14.952 14.952v128.996c0 8.245 6.707 14.952 14.952 14.952h42.772c8.245 0 14.953-6.707 14.953-14.952V322.361c0-8.245-6.708-14.952-14.953-14.952zm2.889 143.948a2.892 2.892 0 0 1-2.889 2.888h-42.772a2.892 2.892 0 0 1-2.888-2.888V322.361a2.892 2.892 0 0 1 2.888-2.888h42.772a2.892 2.892 0 0 1 2.889 2.888z" fill="#3d3d3d" data-original="#440a29" class=""></path><path d="M329.59 356.702a6.032 6.032 0 0 0-6.032 6.032v11.32a6.032 6.032 0 0 0 12.064 0v-11.32a6.032 6.032 0 0 0-6.032-6.032zM346.217 393.632a6.032 6.032 0 0 0-6.032 6.032v11.32a6.032 6.032 0 0 0 12.064 0v-11.32a6.032 6.032 0 0 0-6.032-6.032z" fill="#3d3d3d" data-original="#440a29" class=""></path></g><path fill="#ffffff" d="M249.633 152.379c-8.273 0-16.546-.068-25.111-.204-5.551-.088-9.981-4.66-9.892-10.211.088-5.551 4.616-9.96 10.212-9.892 16.914.269 32.67.269 49.586 0l.163-.001c5.478 0 9.962 4.396 10.049 9.894.087 5.551-4.341 10.124-9.892 10.211-8.568.134-16.841.203-25.115.203zM184.625 152.176h-11.709c-5.552 0-10.053-4.501-10.053-10.053s4.501-10.053 10.053-10.053h11.709c5.552 0 10.053 4.501 10.053 10.053s-4.501 10.053-10.053 10.053z" data-original="#ffffff" class=""></path><g fill="#cab4ef"></g></g></svg>